<svg xmlns="http://www.w3.org/2000/svg" viewBox="0 0 163.03 63.48"><defs><style>.cls-1{fill:red;}</style></defs><g id="Layer_2" data-name="Layer 2"><g id="Layer_1-2" data-name="Layer 1"><polygon class="cls-1" points="32.41 38.07 36.23 38.07 36.23 27.72 40.85 13.76 37.13 13.76 34.53 22.69 34.46 22.69 31.85 13.76 27.79 13.76 32.41 27.72 32.41 38.07"/><path class="cls-1" d="M47.48,38.42a5.6,5.6,0,0,0,4.31-1.6,6.37,6.37,0,0,0,1.49-4.51V19.53A6.4,6.4,0,0,0,51.79,15a5.64,5.64,0,0,0-4.31-1.6,5.61,5.61,0,0,0-4.3,1.6,6.36,6.36,0,0,0-1.5,4.52V32.31a6.33,6.33,0,0,0,1.5,4.51A5.58,5.58,0,0,0,47.48,38.42Zm-2-19.14c0-1.59.66-2.39,2-2.39s2,.8,2,2.39V32.55q0,2.4-2,2.4t-2-2.4Z"/><path class="cls-1" d="M61.41,38.42a5.51,5.51,0,0,0,4.24-1.58,6.47,6.47,0,0,0,1.45-4.53V13.76H63.42V32.58a2.63,2.63,0,0,1-.5,1.81,1.86,1.86,0,0,1-1.44.56A1.83,1.83,0,0,1,60,34.39a2.63,2.63,0,0,1-.51-1.81V13.76H55.71V32.31a6.48,6.48,0,0,0,1.46,4.53A5.5,5.5,0,0,0,61.41,38.42Z"/><path class="cls-1" d="M73.63,27.65H75a2.28,2.28,0,0,1,1.86.66,3.78,3.78,0,0,1,.54,2.33v4.44A15.85,15.85,0,0,0,77.42,37a5,5,0,0,0,.28,1.11h3.89a4,4,0,0,1-.35-1.27,15.19,15.19,0,0,1-.07-1.68V30.85a8.61,8.61,0,0,0-.57-3.44,3,3,0,0,0-2-1.7v-.07q2.5-1,2.5-4.79v-1.5a5.81,5.81,0,0,0-1.35-4.22,5.87,5.87,0,0,0-4.31-1.37H69.81V38.07h3.82Zm0-10.42h1.74a1.8,1.8,0,0,1,1.48.59,3.12,3.12,0,0,1,.46,1.91v1.88a2.79,2.79,0,0,1-.57,2,2.3,2.3,0,0,1-1.72.59H73.63Z"/><path class="cls-1" d="M88.78,38.42a5.52,5.52,0,0,0,4.28-1.6,6.47,6.47,0,0,0,1.48-4.58,8.46,8.46,0,0,0-.9-4,14.48,14.48,0,0,0-3.3-3.78,14,14,0,0,1-2.59-2.78A4.63,4.63,0,0,1,87,19.21c0-1.55.64-2.32,1.91-2.32a1.76,1.76,0,0,1,1.42.57,2.75,2.75,0,0,1,.49,1.82v1.25h3.61v-1A6.62,6.62,0,0,0,93.06,15a5.27,5.27,0,0,0-4.15-1.58A5.48,5.48,0,0,0,84.68,15a6.34,6.34,0,0,0-1.46,4.47,7.62,7.62,0,0,0,.94,3.8A15.23,15.23,0,0,0,87.46,27,13.2,13.2,0,0,1,90,29.82a5.2,5.2,0,0,1,.69,2.69,2.82,2.82,0,0,1-.5,1.86,1.88,1.88,0,0,1-1.48.58q-2,0-2-2.37V30.92H83.15v1.39a6.56,6.56,0,0,0,1.42,4.53A5.39,5.39,0,0,0,88.78,38.42Z"/><polygon class="cls-1" points="99.71 38.07 103.53 38.07 103.53 17.23 107.53 17.23 107.53 13.76 95.72 13.76 95.72 17.23 99.71 17.23 99.71 38.07"/><path class="cls-1" d="M114.75,38.42a5.6,5.6,0,0,0,4.31-1.6,6.37,6.37,0,0,0,1.49-4.51V19.53A6.4,6.4,0,0,0,119.06,15a6.59,6.59,0,0,0-8.61,0,6.36,6.36,0,0,0-1.5,4.52V32.31a6.33,6.33,0,0,0,1.5,4.51A5.58,5.58,0,0,0,114.75,38.42Zm-2-19.14c0-1.59.66-2.39,2-2.39s2,.8,2,2.39V32.55q0,2.4-2,2.4t-2-2.4Z"/><path class="cls-1" d="M126.94,27.65h1.32a2.28,2.28,0,0,1,1.86.66,3.78,3.78,0,0,1,.54,2.33v4.44a15.85,15.85,0,0,0,.07,1.88,5,5,0,0,0,.28,1.11h3.88a4.21,4.21,0,0,1-.34-1.27,15.19,15.19,0,0,1-.07-1.68V30.85a8.61,8.61,0,0,0-.57-3.44,3,3,0,0,0-2-1.7v-.07q2.51-1,2.5-4.79v-1.5a5.81,5.81,0,0,0-1.35-4.22,5.87,5.87,0,0,0-4.31-1.37h-5.66V38.07h3.82Zm0-10.42h1.74a1.77,1.77,0,0,1,1.47.59,3,3,0,0,1,.47,1.91v1.88a2.79,2.79,0,0,1-.57,2,2.3,2.3,0,0,1-1.72.59h-1.39Z"/><polygon class="cls-1" points="140.07 38.07 143.89 38.07 143.89 27.72 148.51 13.76 144.79 13.76 142.19 22.69 142.12 22.69 139.51 13.76 135.45 13.76 140.07 27.72 140.07 38.07"/><path class="cls-1" d="M159,0H13.09V51.53H163V0h-4Zm0,47.54h-142V4H159Z"/><path class="cls-1" d="M147.62,50.9a3.81,3.81,0,0,1-1.67-.41v9H4V15.94H15.12a4.13,4.13,0,0,1,.45-4H0V63.48H149.94v-13A6.82,6.82,0,0,1,147.62,50.9Z"/><polygon class="cls-1" points="17.81 49.02 3.12 62.61 0.3 59.79 14.99 46.2 17.81 49.02"/><polygon class="cls-1" points="15.9 2.83 2.9 14.79 0.08 11.97 13.08 0.01 15.9 2.83"/></g></g></svg>